<svg version="1.1" xmlns="http://www.w3.org/2000/svg" viewBox="0 0 106.8250048527575 46.490547319293455" width="106.8250048527575" height="46.490547319293455">
  <!-- svg-source:excalidraw -->
  <defs>
    <style class="style-fonts">
      @font-face {
        font-family: "Virgil";
        src: url("https://excalidraw.com/Virgil.woff2");
      }
      @font-face {
        font-family: "Cascadia";
        src: url("https://excalidraw.com/Cascadia.woff2");
      }
    </style>
  </defs>
  <rect x="0" y="0" width="106.8250048527575" height="46.490547319293455" fill="#fff"></rect>
  <g stroke-linecap="round" transform="translate(10 10) rotate(0 43.41250242637875 13.245273659646728)">
    <path d="M6.62 0 M6.62 0 C32.87 3.61, 49.18 1.18, 80.2 0 M6.62 0 C35.21 -0.87, 62.28 1.62, 80.2 0 M80.2 0 C84.62 3.99, 85.32 2.68, 86.83 6.62 M80.2 0 C85.8 2.15, 85.43 -1.93, 86.83 6.62 M86.83 6.62 C85.84 10.91, 87.35 13.77, 86.83 19.87 M86.83 6.62 C85.55 11.39, 86.83 16.23, 86.83 19.87 M86.83 19.87 C90.29 25.72, 86.84 26.37, 80.2 26.49 M86.83 19.87 C90.77 22.32, 84.56 26.48, 80.2 26.49 M80.2 26.49 C52.83 23.26, 28.1 24.43, 6.62 26.49 M80.2 26.49 C61.74 23.83, 40.96 25.01, 6.62 26.49 M6.62 26.49 C1.78 30.11, -2.38 22.76, 0 19.87 M6.62 26.49 C2.71 27.33, -2.25 25.72, 0 19.87 M0 19.87 C0.46 13.84, -1.12 13.61, 0 6.62 M0 19.87 C-0.09 16.67, 1.34 12.53, 0 6.62 M0 6.62 C1.18 6.04, 3.07 -2.98, 6.62 0 M0 6.62 C2.31 5.51, 6.01 -4.18, 6.62 0" stroke="#0087DB" stroke-width="1" fill="none"></path>
  </g>
  <g transform="translate(27.083985696541504 23.7113385422972) rotate(0 9.672832872900585 -0.18393416179264932)" stroke="none">
    <path fill="#0087DB" d="M 0,-2.31 Q 0,-2.31 1.48,-2.30 2.97,-2.28 4.18,-2.30 5.39,-2.33 6.85,-2.68 8.31,-3.03 9.42,-3.23 10.53,-3.43 11.99,-3.21 13.44,-3.00 14.52,-3.12 15.60,-3.24 17.43,-3.25 19.25,-3.25 19.77,-3.17 20.28,-3.08 20.74,-2.84 21.20,-2.60 21.55,-2.22 21.91,-1.84 22.13,-1.37 22.35,-0.90 22.40,-0.38 22.46,0.12 22.35,0.63 22.23,1.14 21.97,1.58 21.70,2.03 21.30,2.36 20.91,2.70 20.42,2.89 19.94,3.08 19.42,3.11 18.91,3.14 18.41,3.00 17.90,2.86 17.47,2.57 17.05,2.28 16.73,1.86 16.42,1.45 16.25,0.96 16.09,0.47 16.09,-0.04 16.09,-0.56 16.25,-1.05 16.42,-1.55 16.73,-1.96 17.05,-2.37 17.48,-2.66 17.91,-2.95 18.41,-3.09 18.91,-3.23 19.42,-3.20 19.94,-3.18 20.43,-2.98 20.91,-2.79 21.30,-2.46 21.70,-2.12 21.97,-1.67 22.23,-1.23 22.35,-0.72 22.46,-0.21 22.40,0.29 22.35,0.81 22.13,1.28 21.91,1.75 21.55,2.13 21.19,2.50 20.74,2.75 20.28,2.99 19.76,3.07 19.25,3.16 19.25,3.16 19.25,3.16 17.02,3.14 14.78,3.11 13.72,3.04 12.66,2.96 11.39,2.60 10.11,2.24 8.99,2.37 7.86,2.50 6.63,2.64 5.40,2.78 4.19,2.76 2.97,2.74 1.48,2.75 0,2.77 -0.30,2.73 -0.60,2.69 -0.89,2.58 -1.18,2.47 -1.43,2.30 -1.68,2.13 -1.88,1.90 -2.09,1.67 -2.23,1.40 -2.37,1.12 -2.45,0.83 -2.52,0.53 -2.52,0.22 -2.52,-0.07 -2.45,-0.37 -2.37,-0.67 -2.23,-0.94 -2.09,-1.21 -1.88,-1.44 -1.68,-1.67 -1.43,-1.84 -1.18,-2.02 -0.89,-2.13 -0.60,-2.24 -0.30,-2.27 0.00,-2.31 0.00,-2.31 L 0,-2.31 Z"></path>
  </g>
  <g transform="translate(55.79909563431579 25.007642962190403) rotate(0 4.191082455453852 -1.2875606344632615)" stroke="none">
    <path fill="#0087DB" d="M 0.18,-3.87 Q 0.18,-3.87 0.96,-3.86 1.74,-3.85 2.90,-3.93 4.07,-4.01 6.20,-4.08 8.33,-4.14 8.80,-4.07 9.27,-3.99 9.69,-3.77 10.11,-3.55 10.44,-3.20 10.76,-2.86 10.96,-2.43 11.16,-1.99 11.21,-1.52 11.26,-1.05 11.16,-0.59 11.06,-0.12 10.82,0.27 10.57,0.68 10.21,0.99 9.85,1.29 9.41,1.47 8.97,1.65 8.49,1.67 8.02,1.70 7.56,1.57 7.10,1.44 6.71,1.18 6.32,0.91 6.03,0.53 5.74,0.15 5.59,-0.29 5.44,-0.74 5.44,-1.21 5.44,-1.68 5.59,-2.13 5.74,-2.58 6.03,-2.96 6.32,-3.34 6.71,-3.61 7.10,-3.87 7.56,-4.00 8.02,-4.13 8.49,-4.10 8.97,-4.07 9.41,-3.90 9.85,-3.72 10.21,-3.42 10.57,-3.11 10.82,-2.70 11.06,-2.30 11.16,-1.83 11.26,-1.37 11.21,-0.90 11.16,-0.42 10.96,0.00 10.76,0.43 10.44,0.77 10.11,1.12 9.69,1.34 9.27,1.56 8.80,1.64 8.33,1.71 8.33,1.71 8.33,1.71 6.01,1.66 3.68,1.60 2.51,1.46 1.34,1.31 0.57,1.20 -0.18,1.09 -0.48,1.04 -0.77,0.98 -1.05,0.85 -1.32,0.72 -1.55,0.53 -1.79,0.34 -1.97,0.10 -2.15,-0.13 -2.27,-0.40 -2.39,-0.68 -2.44,-0.98 -2.49,-1.27 -2.47,-1.57 -2.44,-1.87 -2.35,-2.16 -2.26,-2.44 -2.10,-2.70 -1.94,-2.95 -1.72,-3.16 -1.50,-3.37 -1.24,-3.52 -0.98,-3.68 -0.70,-3.76 -0.41,-3.85 -0.11,-3.86 0.18,-3.87 0.18,-3.87 L 0.18,-3.87 Z"></path>
  </g>
  <g transform="translate(72.47607313222989 24.41738247587091) rotate(0 3.4896206787851725 -0.837598487859168)" stroke="none">
    <path fill="#0087DB" d="M -0.07,-3.19 Q -0.07,-3.19 0.56,-3.25 1.19,-3.32 2.25,-3.43 3.32,-3.54 5.11,-3.69 6.90,-3.84 7.35,-3.76 7.81,-3.69 8.22,-3.48 8.62,-3.27 8.94,-2.94 9.26,-2.60 9.46,-2.19 9.66,-1.77 9.71,-1.31 9.76,-0.86 9.67,-0.40 9.57,0.04 9.34,0.43 9.10,0.83 8.75,1.13 8.41,1.43 7.98,1.61 7.55,1.78 7.09,1.81 6.63,1.84 6.19,1.72 5.74,1.60 5.36,1.34 4.98,1.09 4.69,0.72 4.41,0.36 4.26,-0.07 4.11,-0.50 4.11,-0.97 4.10,-1.43 4.25,-1.86 4.39,-2.30 4.67,-2.67 4.94,-3.04 5.32,-3.30 5.70,-3.56 6.15,-3.69 6.59,-3.82 7.05,-3.79 7.51,-3.77 7.94,-3.61 8.37,-3.44 8.72,-3.14 9.07,-2.85 9.32,-2.45 9.56,-2.06 9.66,-1.61 9.76,-1.16 9.71,-0.70 9.67,-0.25 9.48,0.16 9.29,0.58 8.97,0.92 8.66,1.26 8.25,1.48 7.85,1.69 7.39,1.77 6.94,1.85 6.94,1.85 6.94,1.85 5.46,1.95 3.98,2.04 2.66,1.96 1.33,1.88 0.70,1.85 0.07,1.82 -0.23,1.79 -0.53,1.76 -0.81,1.66 -1.10,1.57 -1.35,1.40 -1.61,1.24 -1.81,1.02 -2.02,0.79 -2.17,0.53 -2.31,0.27 -2.40,-0.01 -2.48,-0.31 -2.48,-0.61 -2.49,-0.91 -2.43,-1.21 -2.36,-1.50 -2.23,-1.77 -2.10,-2.04 -1.90,-2.28 -1.71,-2.51 -1.47,-2.69 -1.22,-2.87 -0.94,-2.98 -0.66,-3.10 -0.36,-3.14 -0.07,-3.19 -0.07,-3.19 L -0.07,-3.19 Z"></path>
  </g>
</svg>