<svg version="1.1" xmlns="http://www.w3.org/2000/svg" viewBox="0 0 110.55077635200246 45.40464932579334" width="110.55077635200246" height="45.40464932579334">
  <!-- svg-source:excalidraw -->
  <defs>
    <style class="style-fonts">
      @font-face {
        font-family: "Virgil";
        src: url("https://excalidraw.com/Virgil.woff2");
      }
      @font-face {
        font-family: "Cascadia";
        src: url("https://excalidraw.com/Cascadia.woff2");
      }
    </style>
  </defs>
  <rect x="0" y="0" width="110.55077635200246" height="45.40464932579334" fill="#fff"></rect>
  <g stroke-linecap="round" transform="translate(10 10) rotate(0 45.27538817600123 12.702324662896672)">
    <path d="M6.35 0 M6.35 0 C32.34 0.5, 67.26 1.15, 84.2 0 M6.35 0 C30.08 0.21, 52.8 -0.81, 84.2 0 M84.2 0 C86.62 -3.04, 89.49 1.98, 90.55 6.35 M84.2 0 C85.42 1.43, 93.84 6.62, 90.55 6.35 M90.55 6.35 C88.63 10.19, 89.49 13.49, 90.55 19.05 M90.55 6.35 C91.6 10.49, 90.7 14.21, 90.55 19.05 M90.55 19.05 C87.15 27.27, 92.16 24.88, 84.2 25.4 M90.55 19.05 C90.95 27.15, 89.57 23.15, 84.2 25.4 M84.2 25.4 C61.51 21.48, 36.07 24.35, 6.35 25.4 M84.2 25.4 C59.1 27.98, 31.96 28.04, 6.35 25.4 M6.35 25.4 C-1 25.83, 1.22 25.2, 0 19.05 M6.35 25.4 C-1.06 29.52, 0.18 27.76, 0 19.05 M0 19.05 C-1.36 16, 0.54 13.14, 0 6.35 M0 19.05 C1.3 16.3, -0.87 12.01, 0 6.35 M0 6.35 C-0.83 0.7, 4.45 3.42, 6.35 0 M0 6.35 C0.32 1.64, -2.05 -2.16, 6.35 0" stroke="#0087DB" stroke-width="1" fill="none"></path>
  </g>
  <g transform="translate(24.1252906395448 22.575936744007322) rotate(0 4.956442636501038 0.0846976945415463)" stroke="none">
    <path fill="#0087DB" d="M -0.56,-2.51 Q -0.56,-2.51 0.05,-2.71 0.68,-2.90 1.90,-2.94 3.13,-2.98 4.17,-2.50 5.21,-2.02 6.73,-2.64 8.25,-3.25 8.72,-3.44 9.19,-3.64 9.69,-3.67 10.20,-3.70 10.69,-3.57 11.18,-3.44 11.60,-3.15 12.03,-2.87 12.34,-2.47 12.65,-2.07 12.81,-1.59 12.98,-1.11 12.98,-0.60 12.99,-0.09 12.83,0.38 12.67,0.86 12.37,1.27 12.06,1.67 11.64,1.96 11.23,2.25 10.74,2.39 10.25,2.53 9.74,2.51 9.23,2.48 8.76,2.30 8.29,2.12 7.90,1.79 7.51,1.46 7.24,1.03 6.98,0.60 6.87,0.10 6.75,-0.38 6.80,-0.89 6.85,-1.39 7.06,-1.85 7.27,-2.32 7.62,-2.69 7.97,-3.06 8.41,-3.30 8.86,-3.54 9.36,-3.63 9.86,-3.71 10.36,-3.64 10.86,-3.56 11.31,-3.32 11.76,-3.09 12.12,-2.72 12.47,-2.36 12.69,-1.90 12.90,-1.44 12.96,-0.94 13.02,-0.43 12.91,0.06 12.81,0.55 12.55,0.99 12.29,1.43 11.91,1.76 11.52,2.09 11.52,2.09 11.52,2.09 8.84,2.95 6.16,3.81 4.97,3.62 3.78,3.42 2.80,2.78 1.83,2.14 1.20,2.24 0.56,2.34 0.26,2.37 -0.03,2.41 -0.33,2.37 -0.62,2.33 -0.90,2.22 -1.18,2.10 -1.43,1.93 -1.67,1.76 -1.87,1.53 -2.07,1.30 -2.20,1.03 -2.34,0.76 -2.41,0.47 -2.48,0.18 -2.47,-0.11 -2.47,-0.41 -2.39,-0.70 -2.32,-1.00 -2.17,-1.26 -2.03,-1.53 -1.83,-1.75 -1.63,-1.97 -1.38,-2.14 -1.13,-2.31 -0.84,-2.41 -0.56,-2.51 -0.56,-2.51 L -0.56,-2.51 Z"></path>
  </g>
  <g transform="translate(42.98999489783046 22.493833835002988) rotate(0 4.034681163995515 -0.08468794256759793)" stroke="none">
    <path fill="#0087DB" d="M -0.69,-2.19 Q -0.69,-2.19 -0.05,-2.42 0.58,-2.65 1.83,-2.76 3.08,-2.87 5.51,-2.94 7.94,-3.02 8.41,-2.94 8.88,-2.87 9.30,-2.64 9.72,-2.42 10.05,-2.07 10.38,-1.73 10.58,-1.30 10.78,-0.87 10.83,-0.39 10.88,0.07 10.78,0.53 10.67,1.00 10.43,1.41 10.18,1.81 9.82,2.12 9.46,2.43 9.02,2.61 8.57,2.78 8.10,2.81 7.62,2.83 7.17,2.71 6.71,2.58 6.31,2.31 5.92,2.04 5.63,1.67 5.34,1.29 5.19,0.84 5.04,0.39 5.04,-0.08 5.04,-0.56 5.19,-1.01 5.35,-1.46 5.63,-1.84 5.92,-2.21 6.31,-2.48 6.71,-2.75 7.17,-2.88 7.63,-3.00 8.10,-2.98 8.57,-2.95 9.02,-2.77 9.46,-2.60 9.82,-2.29 10.18,-1.98 10.43,-1.57 10.67,-1.17 10.78,-0.70 10.88,-0.24 10.83,0.22 10.77,0.70 10.58,1.13 10.38,1.56 10.05,1.91 9.72,2.25 9.30,2.47 8.88,2.70 8.41,2.77 7.94,2.85 7.94,2.85 7.94,2.85 5.98,2.81 4.03,2.78 2.98,2.58 1.93,2.38 1.31,2.51 0.69,2.65 0.39,2.69 0.09,2.74 -0.21,2.71 -0.51,2.69 -0.80,2.59 -1.08,2.49 -1.34,2.33 -1.60,2.17 -1.81,1.95 -2.02,1.73 -2.17,1.46 -2.32,1.20 -2.40,0.91 -2.48,0.62 -2.49,0.31 -2.51,0.01 -2.44,-0.28 -2.38,-0.57 -2.25,-0.85 -2.12,-1.12 -1.93,-1.36 -1.73,-1.59 -1.49,-1.77 -1.25,-1.95 -0.97,-2.07 -0.69,-2.19 -0.69,-2.19 L -0.69,-2.19 Z"></path>
  </g>
  <g transform="translate(61.960526027946116 21.33202301557185) rotate(0 12.583636065876135 0.612607662583514)" stroke="none">
    <path fill="#0087DB" d="M 0,-0.80 Q 0,-0.80 1.62,-0.75 3.24,-0.71 4.43,-0.73 5.62,-0.76 7.31,-0.83 9.01,-0.91 10.11,-0.97 11.20,-1.03 12.41,-1.76 13.62,-2.48 14.81,-2.69 15.99,-2.90 17.53,-2.96 19.07,-3.02 20.52,-3.04 21.97,-3.05 24.98,-1.89 28.00,-0.72 28.16,-0.20 28.31,0.30 28.30,0.84 28.28,1.37 28.09,1.87 27.90,2.38 27.56,2.79 27.23,3.21 26.77,3.50 26.32,3.78 25.80,3.91 25.28,4.04 24.74,3.99 24.21,3.94 23.72,3.73 23.23,3.51 22.83,3.15 22.43,2.79 22.17,2.33 21.91,1.86 21.81,1.33 21.71,0.80 21.79,0.27 21.86,-0.25 22.10,-0.73 22.34,-1.21 22.72,-1.58 23.11,-1.96 23.59,-2.20 24.07,-2.43 24.60,-2.50 25.13,-2.57 25.66,-2.47 26.18,-2.37 26.65,-2.10 27.12,-1.83 27.47,-1.43 27.83,-1.03 28.04,-0.54 28.25,-0.04 28.29,0.48 28.33,1.02 28.20,1.54 28.06,2.06 27.77,2.51 27.48,2.96 27.06,3.29 26.64,3.63 26.14,3.81 25.63,3.99 25.10,4.00 24.56,4.01 24.05,3.85 23.54,3.69 23.10,3.38 22.67,3.06 22.36,2.63 22.05,2.19 22.05,2.19 22.05,2.19 22.89,2.70 23.74,3.22 22.16,3.34 20.58,3.46 19.24,3.43 17.89,3.41 16.79,3.36 15.69,3.32 14.62,3.70 13.54,4.09 12.43,4.38 11.32,4.67 10.17,4.61 9.01,4.55 7.31,4.47 5.62,4.40 4.43,4.37 3.24,4.35 1.62,4.39 0,4.44 -0.31,4.40 -0.62,4.36 -0.92,4.25 -1.21,4.14 -1.47,3.96 -1.74,3.78 -1.94,3.54 -2.15,3.31 -2.30,3.03 -2.45,2.75 -2.52,2.44 -2.60,2.13 -2.60,1.82 -2.60,1.50 -2.52,1.19 -2.45,0.89 -2.30,0.60 -2.15,0.32 -1.94,0.09 -1.73,-0.14 -1.47,-0.32 -1.21,-0.50 -0.92,-0.61 -0.62,-0.72 -0.31,-0.76 0.00,-0.80 0.00,-0.80 L 0,-0.80 Z"></path>
  </g>
</svg>