<svg version="1.1" xmlns="http://www.w3.org/2000/svg" viewBox="0 0 103.15940868184134 42.632018526708634" width="103.15940868184134" height="42.632018526708634">
  <!-- svg-source:excalidraw -->
  <defs>
    <style class="style-fonts">
      @font-face {
        font-family: "Virgil";
        src: url("https://excalidraw.com/Virgil.woff2");
      }
      @font-face {
        font-family: "Cascadia";
        src: url("https://excalidraw.com/Cascadia.woff2");
      }
    </style>
  </defs>
  <rect  x="0" y="0" width="103.15940868184134" height="42.632018526708634" fill="#fff"></rect>
  <g stroke-linecap="round" transform="translate(10 10) rotate(0 41.57970434092067 11.316009263354317)">
    <path id="dash_5_10_5" d="M5.66 0 M5.66 0 C33.77 1.62, 60.23 -0.23, 77.5 0 M5.66 0 C25.6 -2.44, 45.7 -1.84, 77.5 0 M77.5 0 C82.98 0.44, 86.74 2.05, 83.16 5.66 M77.5 0 C81.44 -2.87, 87.32 -2.54, 83.16 5.66 M83.16 5.66 C84.03 9.64, 82.74 14.29, 83.16 16.97 M83.16 5.66 C82.32 7.08, 83.53 10.3, 83.16 16.97 M83.16 16.97 C79.66 23.32, 80.84 26.42, 77.5 22.63 M83.16 16.97 C78.65 19.39, 77.74 24.32, 77.5 22.63 M77.5 22.63 C58.32 26.28, 41.26 20.22, 5.66 22.63 M77.5 22.63 C50.74 22.47, 21.7 23.84, 5.66 22.63 M5.66 22.63 C-0.07 25.46, 0.11 22.45, 0 16.97 M5.66 22.63 C-1.25 27.2, 3 18.46, 0 16.97 M0 16.97 C-0.46 13.78, -1.37 8.88, 0 5.66 M0 16.97 C-0.43 12.89, 0.29 9.08, 0 5.66 M0 5.66 C-1.22 -1.71, -0.15 -0.44, 5.66 0 M0 5.66 C3.79 0.23, 3.61 0.96, 5.66 0" stroke="#087f5b" stroke-width="1" fill="none"></path>
  </g>
  <g transform="translate(21.498755722598844 21.639753456690414) rotate(0 2.7904384299858975 0.5662531796169787)" stroke="none">
    <path id="dash_5_10_5" fill="#087f5b" d="M -0.97,-1.22 Q -0.97,-1.22 -0.44,-1.45 0.07,-1.68 1.20,-2.03 2.33,-2.38 4.19,-2.59 6.05,-2.79 6.50,-2.72 6.94,-2.65 7.34,-2.43 7.74,-2.22 8.05,-1.89 8.37,-1.57 8.56,-1.15 8.75,-0.74 8.80,-0.29 8.84,0.15 8.75,0.59 8.65,1.03 8.42,1.42 8.18,1.81 7.84,2.10 7.49,2.39 7.07,2.56 6.65,2.73 6.20,2.75 5.75,2.78 5.31,2.66 4.87,2.53 4.50,2.28 4.12,2.03 3.85,1.67 3.58,1.31 3.43,0.88 3.29,0.45 3.29,-0.00 3.29,-0.45 3.43,-0.88 3.58,-1.31 3.85,-1.67 4.13,-2.03 4.50,-2.28 4.87,-2.54 5.31,-2.66 5.75,-2.78 6.20,-2.75 6.65,-2.73 7.07,-2.56 7.49,-2.39 7.84,-2.10 8.18,-1.81 8.42,-1.42 8.65,-1.03 8.75,-0.59 8.84,-0.15 8.79,0.29 8.75,0.74 8.56,1.16 8.37,1.57 8.05,1.89 7.74,2.22 7.34,2.44 6.94,2.65 6.50,2.72 6.05,2.79 6.05,2.79 6.05,2.79 3.90,3.00 1.75,3.20 1.19,3.34 0.63,3.49 0.33,3.55 0.04,3.61 -0.25,3.60 -0.55,3.59 -0.84,3.51 -1.13,3.43 -1.39,3.28 -1.65,3.13 -1.87,2.92 -2.09,2.72 -2.25,2.46 -2.41,2.21 -2.51,1.93 -2.61,1.64 -2.63,1.34 -2.66,1.04 -2.61,0.75 -2.57,0.45 -2.45,0.17 -2.33,-0.09 -2.16,-0.33 -1.98,-0.58 -1.75,-0.77 -1.51,-0.96 -1.24,-1.09 -0.97,-1.22 -0.97,-1.22 L -0.97,-1.22 Z"></path>
  </g>
  <g transform="translate(39.72321482653251 20.783291568453024) rotate(0 10.709072642834485 0.062707060476896)" stroke="none">
    <path id="dash_5_10_5" fill="#087f5b" d="M -0.44,-1.78 Q -0.44,-1.78 0.91,-2.02 2.27,-2.25 3.74,-2.65 5.21,-3.05 6.50,-3.27 7.79,-3.50 8.92,-3.59 10.05,-3.67 11.25,-3.74 12.44,-3.81 13.60,-3.69 14.76,-3.57 15.92,-3.51 17.08,-3.44 18.26,-3.26 19.43,-3.08 20.40,-2.88 21.37,-2.67 21.92,-2.57 22.47,-2.48 22.95,-2.21 23.44,-1.95 23.82,-1.54 24.19,-1.13 24.42,-0.63 24.65,-0.12 24.70,0.42 24.75,0.97 24.63,1.51 24.50,2.05 24.21,2.52 23.92,2.99 23.49,3.35 23.07,3.70 22.55,3.90 22.03,4.10 21.48,4.12 20.93,4.15 20.39,3.99 19.86,3.84 19.41,3.52 18.95,3.21 18.62,2.76 18.29,2.32 18.12,1.79 17.95,1.26 17.96,0.71 17.96,0.15 18.14,-0.36 18.33,-0.88 18.67,-1.32 19.01,-1.76 19.47,-2.06 19.93,-2.37 20.47,-2.51 21.00,-2.65 21.56,-2.62 22.11,-2.58 22.62,-2.37 23.13,-2.16 23.55,-1.79 23.97,-1.43 24.25,-0.95 24.53,-0.47 24.64,0.06 24.76,0.60 24.69,1.15 24.63,1.70 24.39,2.20 24.15,2.70 23.76,3.10 23.38,3.50 22.88,3.75 22.39,4.00 21.84,4.09 21.30,4.17 21.30,4.17 21.30,4.17 19.10,3.72 16.90,3.26 15.68,3.07 14.46,2.87 12.84,2.68 11.22,2.49 10.11,2.42 8.99,2.35 7.74,2.30 6.49,2.26 4.82,2.53 3.16,2.81 1.80,3.05 0.44,3.29 0.13,3.30 -0.17,3.32 -0.48,3.26 -0.78,3.20 -1.06,3.07 -1.35,2.94 -1.59,2.75 -1.83,2.56 -2.02,2.31 -2.21,2.06 -2.34,1.78 -2.46,1.50 -2.52,1.19 -2.57,0.88 -2.55,0.57 -2.53,0.26 -2.43,-0.02 -2.34,-0.32 -2.18,-0.58 -2.01,-0.85 -1.79,-1.07 -1.57,-1.28 -1.30,-1.44 -1.03,-1.60 -0.74,-1.69 -0.44,-1.78 -0.44,-1.78 L -0.44,-1.78 Z"></path>
  </g>
  <g transform="translate(72.4596936404414 21.882927207135708) rotate(0 4.461753097732412 -0.37624810395277564)" stroke="none">
    <path id="dash_5_10_5" fill="#087f5b" d="M -0.37,-2.44 Q -0.37,-2.44 0.80,-2.65 1.98,-2.85 3.06,-3.05 4.14,-3.25 6.61,-3.35 9.08,-3.45 9.52,-3.34 9.96,-3.22 10.35,-2.97 10.73,-2.72 11.01,-2.36 11.30,-2.00 11.45,-1.57 11.60,-1.14 11.61,-0.68 11.62,-0.22 11.48,0.20 11.34,0.64 11.07,1.01 10.80,1.38 10.43,1.64 10.05,1.91 9.62,2.04 9.18,2.17 8.72,2.15 8.26,2.13 7.83,1.97 7.40,1.81 7.05,1.52 6.70,1.23 6.45,0.84 6.21,0.45 6.10,0.01 6.00,-0.43 6.04,-0.88 6.08,-1.34 6.26,-1.76 6.45,-2.18 6.76,-2.52 7.07,-2.85 7.47,-3.07 7.87,-3.30 8.32,-3.38 8.77,-3.46 9.22,-3.39 9.68,-3.33 10.08,-3.12 10.49,-2.91 10.81,-2.59 11.13,-2.26 11.33,-1.85 11.53,-1.44 11.59,-0.98 11.65,-0.53 11.56,-0.08 11.47,0.36 11.24,0.76 11.01,1.15 10.67,1.46 10.32,1.76 9.90,1.93 9.48,2.11 9.02,2.14 8.56,2.18 8.56,2.18 8.57,2.18 6.76,2.14 4.95,2.10 3.85,2.12 2.74,2.13 1.55,2.29 0.37,2.44 0.07,2.45 -0.22,2.46 -0.51,2.39 -0.80,2.33 -1.07,2.20 -1.34,2.07 -1.57,1.88 -1.79,1.69 -1.97,1.45 -2.15,1.21 -2.26,0.93 -2.38,0.66 -2.42,0.36 -2.47,0.07 -2.44,-0.22 -2.41,-0.51 -2.31,-0.79 -2.22,-1.08 -2.06,-1.33 -1.89,-1.58 -1.68,-1.78 -1.46,-1.99 -1.20,-2.13 -0.94,-2.28 -0.65,-2.36 -0.37,-2.44 -0.37,-2.44 L -0.37,-2.44 Z"></path>
  </g>
</svg>