<svg version="1.1" xmlns="http://www.w3.org/2000/svg" viewBox="0 0 145.12030742990873 45.62527086551245" width="145.12030742990873" height="45.62527086551245">
  <!-- svg-source:excalidraw -->
  <defs>
    <style class="style-fonts">
      @font-face {
        font-family: "Virgil";
        src: url("https://excalidraw.com/Virgil.woff2");
      }
      @font-face {
        font-family: "Cascadia";
        src: url("https://excalidraw.com/Cascadia.woff2");
      }
    </style>
  </defs>
  <rect x="0" y="0" width="145.12030742990873" height="45.62527086551245" fill="#fff" ></rect>\
  <g id="dash_10_10_10" stroke-linecap="round" transform="translate(10 10) rotate(0 62.56015371495437 12.812635432756224)">
    <path id="dash_10_10_10" d="M6.41 0 M6.41 0 C36.11 -2.87, 64.59 3.92, 118.71 0 M6.41 0 C50.37 3.33, 92.8 0.67, 118.71 0 M118.71 0 C124.22 -3.87, 124.59 -1.19, 125.12 6.41 M118.71 0 C120.4 -1.57, 123.65 4.23, 125.12 6.41 M125.12 6.41 C126.2 9.72, 123.97 14.68, 125.12 19.22 M125.12 6.41 C125.52 8.59, 124.08 12.94, 125.12 19.22 M125.12 19.22 C127.08 21.77, 126.7 22, 118.71 25.63 M125.12 19.22 C124.83 23.64, 123.4 28.43, 118.71 25.63 M118.71 25.63 C75.96 24.9, 33.91 25.6, 6.41 25.63 M118.71 25.63 C93.81 28.42, 69.16 27.2, 6.41 25.63 M6.41 25.63 C0.98 25.57, -0.92 24.6, 0 19.22 M6.41 25.63 C4.12 23.94, -4.32 21.99, 0 19.22 M0 19.22 C-0.57 15.29, 1.98 11.73, 0 6.41 M0 19.22 C0.62 14.36, -0.33 10.61, 0 6.41 M0 6.41 C-1.96 0.25, 3.18 1.31, 6.41 0 M0 6.41 C3.4 5.87, 2.04 -4.07, 6.41 0" stroke="#087f5b" stroke-width="1" fill="none"></path>
  </g>
  <g transform="translate(22.316438009682997 24.921069271284523) rotate(0 12.175739021356549 -0.11379540989764791)" stroke="none">
    <path id="dash_10_10_10" fill="#087f5b" d="M 0,-2.65 Q 0,-2.65 0.91,-2.68 1.83,-2.72 3.26,-2.61 4.69,-2.50 6.07,-2.22 7.44,-1.94 8.63,-1.98 9.83,-2.01 11.02,-2.06 12.21,-2.11 13.51,-2.15 14.80,-2.19 16.05,-2.63 17.29,-3.08 18.83,-3.53 20.37,-3.98 21.91,-4.35 23.45,-4.72 24.01,-4.76 24.57,-4.80 25.11,-4.65 25.66,-4.51 26.13,-4.21 26.60,-3.90 26.95,-3.46 27.29,-3.01 27.48,-2.49 27.67,-1.96 27.68,-1.39 27.69,-0.83 27.52,-0.30 27.35,0.23 27.01,0.68 26.68,1.13 26.22,1.46 25.76,1.78 25.22,1.94 24.68,2.10 24.12,2.08 23.56,2.06 23.03,1.86 22.51,1.66 22.08,1.30 21.64,0.94 21.34,0.47 21.05,-0.00 20.92,-0.55 20.79,-1.09 20.84,-1.65 20.89,-2.21 21.12,-2.73 21.35,-3.24 21.72,-3.65 22.10,-4.07 22.60,-4.34 23.09,-4.61 23.64,-4.71 24.19,-4.81 24.75,-4.73 25.31,-4.65 25.81,-4.39 26.31,-4.14 26.70,-3.73 27.09,-3.33 27.34,-2.83 27.58,-2.32 27.65,-1.76 27.72,-1.21 27.61,-0.66 27.50,-0.10 27.22,0.37 26.93,0.86 26.51,1.23 26.09,1.60 25.57,1.82 25.05,2.03 25.05,2.03 25.05,2.03 22.56,2.64 20.08,3.25 18.90,3.56 17.73,3.87 16.27,4.17 14.81,4.47 13.51,4.42 12.20,4.38 10.96,4.33 9.71,4.27 8.36,4.14 7.01,4.02 5.98,3.71 4.96,3.40 3.39,3.06 1.83,2.72 0.91,2.68 0,2.65 -0.31,2.61 -0.63,2.57 -0.93,2.46 -1.23,2.34 -1.49,2.16 -1.75,1.98 -1.97,1.74 -2.18,1.50 -2.33,1.22 -2.48,0.94 -2.55,0.63 -2.63,0.31 -2.63,-0.00 -2.63,-0.32 -2.55,-0.63 -2.48,-0.94 -2.33,-1.22 -2.18,-1.50 -1.97,-1.74 -1.75,-1.98 -1.49,-2.16 -1.23,-2.34 -0.93,-2.46 -0.63,-2.57 -0.31,-2.61 0.00,-2.65 0.00,-2.65 L 0,-2.65 Z"></path>
  </g>
  <g transform="translate(59.24647622156613 23.72298829397414) rotate(0 13.427452067359695 1.4792882388537691)" stroke="none">
    <path id="dash_10_10_10" fill="#087f5b" d="M 0.44,-2.47 Q 0.44,-2.47 2.25,-2.06 4.07,-1.65 5.35,-1.48 6.64,-1.30 7.99,-1.17 9.34,-1.03 10.77,-0.69 12.20,-0.36 13.60,-0.10 15.01,0.16 16.18,0.10 17.35,0.05 18.41,-0.02 19.48,-0.09 20.82,-0.65 22.16,-1.21 24.38,-1.76 26.59,-2.32 27.11,-2.26 27.63,-2.20 28.11,-1.97 28.58,-1.75 28.96,-1.38 29.34,-1.01 29.58,-0.55 29.82,-0.08 29.90,0.43 29.98,0.95 29.89,1.47 29.80,1.98 29.54,2.44 29.29,2.90 28.91,3.26 28.52,3.62 28.04,3.83 27.56,4.05 27.04,4.10 26.52,4.15 26.01,4.03 25.49,3.91 25.05,3.64 24.60,3.36 24.26,2.96 23.93,2.55 23.74,2.06 23.55,1.57 23.53,1.05 23.51,0.52 23.65,0.02 23.80,-0.48 24.10,-0.91 24.40,-1.34 24.82,-1.65 25.24,-1.97 25.74,-2.13 26.24,-2.29 26.77,-2.28 27.29,-2.28 27.79,-2.10 28.28,-1.93 28.70,-1.61 29.11,-1.28 29.40,-0.85 29.69,-0.41 29.83,0.09 29.96,0.60 29.93,1.12 29.89,1.65 29.69,2.13 29.49,2.62 29.15,3.01 28.80,3.41 28.35,3.68 27.90,3.94 27.38,4.05 26.87,4.15 26.87,4.15 26.87,4.15 25.06,4.63 23.26,5.10 22.06,5.44 20.86,5.78 19.48,5.85 18.11,5.92 16.99,5.81 15.87,5.69 14.79,5.50 13.71,5.30 12.33,4.85 10.95,4.40 9.88,4.08 8.81,3.77 7.35,3.60 5.89,3.43 4.57,3.19 3.25,2.96 1.40,2.72 -0.44,2.47 -0.73,2.38 -1.02,2.29 -1.28,2.14 -1.54,1.98 -1.75,1.77 -1.97,1.56 -2.13,1.30 -2.28,1.04 -2.38,0.75 -2.47,0.46 -2.49,0.16 -2.51,-0.14 -2.45,-0.43 -2.40,-0.73 -2.28,-1.01 -2.15,-1.29 -1.97,-1.53 -1.78,-1.77 -1.54,-1.95 -1.31,-2.14 -1.03,-2.27 -0.75,-2.39 -0.46,-2.45 -0.16,-2.51 0.13,-2.49 0.44,-2.47 0.44,-2.47 L 0.44,-2.47 Z"></path>
  </g>
  <g transform="translate(99.69495186244922 24.693478451489227) rotate(0 12.40332463217021 -0.56895621356216)" stroke="none">
    <path id="dash_10_10_10" fill="#087f5b" d="M -0.30,-2.42 Q -0.30,-2.42 1.80,-2.54 3.91,-2.66 5.51,-2.79 7.11,-2.92 8.39,-3.02 9.67,-3.12 11.09,-3.17 12.50,-3.23 13.57,-3.32 14.64,-3.42 15.71,-3.48 16.77,-3.55 18.11,-3.84 19.46,-4.13 20.55,-4.22 21.64,-4.31 23.18,-4.31 24.73,-4.32 25.24,-4.24 25.75,-4.15 26.20,-3.91 26.66,-3.67 27.01,-3.29 27.37,-2.92 27.58,-2.45 27.80,-1.99 27.86,-1.47 27.91,-0.96 27.80,-0.46 27.69,0.04 27.42,0.48 27.16,0.92 26.77,1.25 26.37,1.59 25.89,1.78 25.41,1.97 24.90,2.00 24.39,2.02 23.89,1.89 23.39,1.75 22.97,1.46 22.54,1.17 22.23,0.76 21.92,0.35 21.75,-0.13 21.59,-0.62 21.59,-1.13 21.59,-1.65 21.75,-2.14 21.92,-2.63 22.23,-3.04 22.54,-3.45 22.97,-3.74 23.39,-4.02 23.89,-4.16 24.39,-4.30 24.90,-4.27 25.42,-4.24 25.89,-4.05 26.37,-3.86 26.77,-3.53 27.16,-3.19 27.42,-2.75 27.69,-2.31 27.80,-1.81 27.91,-1.30 27.86,-0.79 27.80,-0.28 27.58,0.18 27.37,0.65 27.01,1.02 26.66,1.39 26.20,1.64 25.75,1.88 25.24,1.96 24.73,2.04 24.73,2.04 24.73,2.04 22.27,1.98 19.81,1.91 18.30,2.05 16.78,2.18 15.70,2.11 14.62,2.05 13.49,1.93 12.36,1.81 11.10,1.62 9.85,1.43 8.64,1.43 7.43,1.43 5.94,1.52 4.45,1.61 2.37,2.02 0.30,2.42 0.00,2.42 -0.28,2.42 -0.57,2.35 -0.85,2.28 -1.12,2.15 -1.38,2.01 -1.60,1.82 -1.82,1.62 -1.99,1.38 -2.16,1.14 -2.26,0.86 -2.37,0.59 -2.40,0.30 -2.44,0.00 -2.40,-0.28 -2.37,-0.57 -2.27,-0.85 -2.16,-1.12 -2.00,-1.37 -1.83,-1.61 -1.61,-1.81 -1.39,-2.00 -1.13,-2.14 -0.87,-2.28 -0.58,-2.35 -0.30,-2.42 -0.30,-2.42 L -0.30,-2.42 Z"></path>
  </g>
</svg>