<svg version="1.1" xmlns="http://www.w3.org/2000/svg" viewBox="0 0 108.53012022995199 45.71698128963226" width="108.53012022995199" height="45.71698128963226">
  <!-- svg-source:excalidraw -->
  <defs>
    <style class="style-fonts">
      @font-face {
        font-family: "Virgil";
        src: url("https://excalidraw.com/Virgil.woff2");
      }
      @font-face {
        font-family: "Cascadia";
        src: url("https://excalidraw.com/Cascadia.woff2");
      }
    </style>
  </defs>
  <rect x="0" y="0" width="108.53012022995199" height="45.71698128963226" fill="#fff"></rect>
  <g stroke-linecap="round" transform="translate(10 10) rotate(0 44.265060114975995 12.85849064481613)">
    <path d="M6.43 0 M6.43 0 C34.34 1.69, 66.25 0.17, 82.1 0 M6.43 0 C22.57 1.49, 38.31 -1.98, 82.1 0 M82.1 0 C83.99 0.01, 90.89 -0.71, 88.53 6.43 M82.1 0 C90.15 1.14, 85.18 -0.8, 88.53 6.43 M88.53 6.43 C86.74 10.88, 90.34 15.03, 88.53 19.29 M88.53 6.43 C88.66 10.45, 89.28 13.61, 88.53 19.29 M88.53 19.29 C91.82 23.64, 86.18 25.04, 82.1 25.72 M88.53 19.29 C91.65 23.84, 85.22 24.89, 82.1 25.72 M82.1 25.72 C64.53 26, 43.79 29.88, 6.43 25.72 M82.1 25.72 C61.69 24.86, 41.17 28.1, 6.43 25.72 M6.43 25.72 C0.75 27.81, 3.83 20.81, 0 19.29 M6.43 25.72 C1.15 25.51, -3.29 20.63, 0 19.29 M0 19.29 C-2.59 14.89, 1.24 8.27, 0 6.43 M0 19.29 C1.03 16.85, -0.83 12.24, 0 6.43 M0 6.43 C-3.63 -0.69, 1.25 -3.12, 6.43 0 M0 6.43 C4 0.09, 5.91 0.38, 6.43 0" stroke="#0087DB" stroke-width="1" fill="none"></path>
  </g>
  <g transform="translate(35.03419841228424 22.28952922227427) rotate(0 3.982724748822875 -0.22759081979529583)" stroke="none">
    <path d="M-2.31 2.1 L-3.06 0.97 L0.95 -3.8 L-2.58 1.64 L0.93 -1.59 L5.52 -0.66 L6.03 1.49 L5.32 2.69 L1.71 1.95 L1.77 0.07 L3.52 -0.03 L4.93 -0.46 L2.56 -0.31 L7.49 -2.87 L4.97 0.73 L2 0.31 L2.36 -1.28 L6.06 -3.39 L9.52 0.86 L4.56 1.09 L10 2.14 L7.2 0.62 L3.5 1.39 L7.93 1.96 L5.95 1.11 L8.39 -0.63 L9.39 -0.51 L11.17 -1.09 L6.4 -1.53 L10.83 2.58 L5.79 3.87 L10.3 -0.18 L8.37 1.12 L4.52 0.14 L7.17 3.54" stroke="none" stroke-width="0" fill="#40c057" fill-rule="evenodd"></path>
    <path fill="#0087DB" d="M 0,-2.78 Q 0,-2.78 1.20,-2.81 2.40,-2.84 3.58,-2.97 4.76,-3.11 6.36,-2.93 7.96,-2.75 8.40,-2.67 8.83,-2.59 9.22,-2.37 9.61,-2.16 9.91,-1.83 10.22,-1.51 10.40,-1.10 10.58,-0.69 10.62,-0.25 10.66,0.18 10.56,0.62 10.46,1.05 10.22,1.43 9.99,1.80 9.65,2.09 9.30,2.37 8.89,2.53 8.47,2.69 8.03,2.71 7.58,2.72 7.16,2.60 6.73,2.47 6.36,2.22 6.00,1.96 5.73,1.61 5.47,1.25 5.33,0.82 5.20,0.40 5.21,-0.03 5.21,-0.48 5.36,-0.90 5.51,-1.32 5.78,-1.67 6.06,-2.02 6.43,-2.26 6.80,-2.51 7.23,-2.62 7.66,-2.73 8.10,-2.70 8.55,-2.67 8.96,-2.50 9.37,-2.33 9.70,-2.04 10.04,-1.75 10.26,-1.36 10.49,-0.98 10.58,-0.54 10.67,-0.10 10.61,0.33 10.56,0.77 10.36,1.17 10.17,1.57 9.86,1.89 9.55,2.21 9.15,2.41 8.76,2.61 8.32,2.68 7.88,2.74 7.88,2.74 7.88,2.74 6.38,2.54 4.87,2.33 3.64,2.26 2.40,2.19 1.20,2.16 0,2.13 -0.29,2.09 -0.58,2.06 -0.86,1.95 -1.14,1.85 -1.38,1.68 -1.63,1.51 -1.82,1.29 -2.02,1.07 -2.16,0.80 -2.29,0.54 -2.37,0.25 -2.44,-0.02 -2.44,-0.32 -2.44,-0.62 -2.37,-0.90 -2.29,-1.19 -2.16,-1.45 -2.02,-1.72 -1.82,-1.94 -1.63,-2.16 -1.38,-2.33 -1.14,-2.50 -0.86,-2.60 -0.58,-2.71 -0.29,-2.74 0.00,-2.78 0.00,-2.78 L 0,-2.78 Z"></path>
  </g>
  <g transform="translate(49.59959416065681 22.061927984516387) rotate(0 3.982703912896909 0.11379020091612801)" stroke="none">
    <path d="M0.04 0.34 L-0.03 -2.47 L-0.5 -1.28 L3.07 3.95 L-0.07 -1.04 L3.46 3.84 L1.85 1.24 L-0.82 1.14 L5.09 1.39 L4.2 3.8 L2.16 -0.87 L1.95 -0.74 L2.73 -2.16 L7.82 2.74 L7.91 -3.4 L4.84 1.25 L3.15 -1.72 L9.1 1.53 L6.67 1.53 L4.74 -1.91 L4.62 0.77 L7.74 -2.72 L6.92 2.07 L10.02 0.91 L7.81 -0.69 L4.67 -1.12 L10.5 -1.91 L8.32 0.6" stroke="none" stroke-width="0" fill="#40c057" fill-rule="evenodd"></path>
    <path fill="#0087DB" d="M -0.14,-2.25 Q -0.14,-2.25 0.73,-2.35 1.60,-2.45 2.74,-2.61 3.87,-2.77 5.94,-2.75 8.02,-2.73 8.47,-2.64 8.93,-2.55 9.33,-2.32 9.74,-2.09 10.04,-1.74 10.35,-1.39 10.53,-0.96 10.71,-0.53 10.74,-0.07 10.78,0.39 10.66,0.84 10.55,1.29 10.29,1.68 10.04,2.07 9.67,2.36 9.31,2.65 8.87,2.80 8.43,2.96 7.97,2.97 7.50,2.98 7.06,2.83 6.61,2.69 6.24,2.42 5.86,2.14 5.60,1.76 5.33,1.38 5.19,0.94 5.06,0.49 5.08,0.03 5.10,-0.43 5.26,-0.86 5.42,-1.30 5.72,-1.66 6.01,-2.02 6.41,-2.26 6.80,-2.51 7.25,-2.62 7.71,-2.73 8.17,-2.69 8.63,-2.64 9.06,-2.46 9.49,-2.27 9.83,-1.95 10.17,-1.64 10.40,-1.23 10.62,-0.83 10.71,-0.37 10.79,0.08 10.72,0.54 10.66,1.00 10.45,1.41 10.23,1.83 9.90,2.15 9.57,2.48 9.15,2.68 8.73,2.89 8.27,2.94 7.81,3.00 7.81,3.00 7.81,3.00 6.05,2.91 4.29,2.81 3.10,2.75 1.91,2.69 1.03,2.70 0.14,2.71 -0.15,2.69 -0.45,2.67 -0.73,2.58 -1.02,2.49 -1.27,2.33 -1.53,2.18 -1.74,1.97 -1.95,1.75 -2.11,1.50 -2.26,1.24 -2.35,0.95 -2.44,0.67 -2.46,0.37 -2.48,0.07 -2.42,-0.22 -2.37,-0.51 -2.25,-0.78 -2.12,-1.06 -1.94,-1.29 -1.75,-1.53 -1.52,-1.71 -1.28,-1.90 -1.01,-2.02 -0.73,-2.14 -0.44,-2.20 -0.14,-2.25 -0.14,-2.25 L -0.14,-2.25 Z"></path>
  </g>
  <g transform="translate(66.82030956902918 23.427441649398133) rotate(0 4.210294732692319 -1.7068738496666356)" stroke="none">
    <path fill="#0087DB" d="M 0.55,-4.43 Q 0.55,-4.43 1.22,-4.33 1.88,-4.22 3.01,-4.13 4.14,-4.05 6.14,-4.24 8.13,-4.43 8.60,-4.38 9.07,-4.33 9.50,-4.14 9.93,-3.94 10.28,-3.61 10.63,-3.29 10.85,-2.87 11.07,-2.45 11.15,-1.98 11.23,-1.52 11.16,-1.05 11.08,-0.58 10.86,-0.16 10.64,0.25 10.30,0.58 9.95,0.91 9.52,1.11 9.09,1.31 8.62,1.36 8.15,1.41 7.69,1.31 7.22,1.21 6.81,0.97 6.41,0.73 6.10,0.37 5.79,0.01 5.61,-0.42 5.44,-0.86 5.41,-1.34 5.38,-1.81 5.51,-2.27 5.63,-2.73 5.90,-3.12 6.16,-3.51 6.54,-3.80 6.91,-4.09 7.36,-4.24 7.81,-4.40 8.29,-4.40 8.76,-4.40 9.21,-4.25 9.66,-4.10 10.04,-3.82 10.42,-3.53 10.69,-3.14 10.95,-2.75 11.08,-2.29 11.21,-1.83 11.19,-1.36 11.16,-0.89 10.99,-0.44 10.82,-0.00 10.51,0.35 10.20,0.71 9.80,0.96 9.39,1.21 8.93,1.31 8.47,1.41 8.47,1.41 8.47,1.41 5.75,1.35 3.03,1.28 1.88,1.01 0.72,0.74 0.08,0.53 -0.55,0.33 -0.83,0.23 -1.11,0.13 -1.35,-0.03 -1.60,-0.19 -1.80,-0.41 -1.99,-0.63 -2.13,-0.89 -2.27,-1.15 -2.35,-1.43 -2.42,-1.72 -2.43,-2.01 -2.43,-2.31 -2.36,-2.60 -2.30,-2.88 -2.16,-3.15 -2.03,-3.41 -1.83,-3.63 -1.64,-3.86 -1.40,-4.03 -1.16,-4.20 -0.88,-4.31 -0.61,-4.41 -0.32,-4.45 -0.02,-4.49 0.26,-4.46 0.55,-4.43 0.55,-4.43 L 0.55,-4.43 Z"></path>
  </g>
</svg>