<svg version="1.1" xmlns="http://www.w3.org/2000/svg" viewBox="0 0 92.54843242352013 42.439103568009614" width="92.54843242352013" height="42.439103568009614">
  <!-- svg-source:excalidraw -->
  <defs>
    <style class="style-fonts">
      @font-face {
        font-family: "Virgil";
        src: url("https://excalidraw.com/Virgil.woff2");
      }
      @font-face {
        font-family: "Cascadia";
        src: url("https://excalidraw.com/Cascadia.woff2");
      }
    </style>
  </defs>
  <rect  x="0" y="0" width="92.54843242352013" height="42.439103568009614" fill="#fff"></rect>
  <g stroke-linecap="round" transform="translate(10 10) rotate(0 36.27421621176006 11.219551784004807)">
    <path id="defaultBrush" d="M5.61 0 M5.61 0 C17.01 -2.31, 37.65 0.98, 66.94 0 M5.61 0 C22.17 -2.27, 40.77 0.78, 66.94 0 M66.94 0 C71.65 3.87, 73.81 1.34, 72.55 5.61 M66.94 0 C66.22 3.87, 74.44 -1.13, 72.55 5.61 M72.55 5.61 C70.97 9.17, 73.37 14.72, 72.55 16.83 M72.55 5.61 C72.33 8.91, 71.52 13.73, 72.55 16.83 M72.55 16.83 C75.63 23.44, 67.03 20.8, 66.94 22.44 M72.55 16.83 C69.76 22.55, 72.43 23.46, 66.94 22.44 M66.94 22.44 C48.77 25.35, 29.07 22.65, 5.61 22.44 M66.94 22.44 C52.73 21.4, 39.3 21.42, 5.61 22.44 M5.61 22.44 C3.9 26.4, -1.03 17.19, 0 16.83 M5.61 22.44 C2.04 20.28, -1.74 19.35, 0 16.83 M0 16.83 C0.63 12.99, 0.97 9.75, 0 5.61 M0 16.83 C0.51 13.12, -0.88 9.63, 0 5.61 M0 5.61 C-0.1 4.58, 1.37 -3.69, 5.61 0 M0 5.61 C-3.45 4.8, 5.33 3.45, 5.61 0" stroke="#087f5b" stroke-width="1" fill="none"></path>
  </g>
  <g transform="translate(20.840525276923017 22.526333209176755) rotate(0 23.99424982890855 0.5258160379094079)" stroke="none">
    <path id="defaultBrush" fill="#087f5b" d="M -0.59,-2.73 Q -0.59,-2.73 0.34,-2.98 1.27,-3.23 2.34,-3.41 3.40,-3.58 4.63,-3.78 5.86,-3.97 7.46,-4.11 9.05,-4.24 10.63,-4.01 12.22,-3.78 13.46,-3.57 14.71,-3.36 15.88,-3.12 17.04,-2.88 18.32,-2.69 19.61,-2.50 21.00,-2.37 22.39,-2.24 23.49,-2.27 24.59,-2.31 25.68,-2.28 26.77,-2.24 28.14,-2.14 29.51,-2.05 30.65,-1.76 31.78,-1.48 32.84,-1.52 33.91,-1.57 35.10,-1.52 36.29,-1.48 37.50,-1.75 38.72,-2.02 39.85,-2.14 40.98,-2.26 42.05,-2.27 43.13,-2.27 45.54,-2.50 47.95,-2.73 48.57,-2.63 49.18,-2.53 49.73,-2.23 50.28,-1.94 50.71,-1.49 51.14,-1.04 51.40,-0.47 51.67,0.08 51.73,0.70 51.80,1.32 51.67,1.93 51.53,2.54 51.21,3.07 50.89,3.61 50.42,4.01 49.94,4.41 49.36,4.64 48.78,4.87 48.16,4.91 47.54,4.94 46.94,4.78 46.34,4.61 45.82,4.26 45.31,3.91 44.93,3.41 44.55,2.92 44.35,2.33 44.16,1.74 44.16,1.11 44.16,0.49 44.35,-0.09 44.55,-0.68 44.93,-1.17 45.31,-1.67 45.82,-2.02 46.34,-2.37 46.94,-2.54 47.54,-2.70 48.16,-2.67 48.78,-2.64 49.36,-2.41 49.94,-2.18 50.41,-1.77 50.89,-1.37 51.21,-0.84 51.53,-0.30 51.67,0.30 51.80,0.91 51.73,1.52 51.67,2.14 51.40,2.71 51.14,3.27 50.71,3.73 50.29,4.18 49.74,4.47 49.18,4.76 48.57,4.86 47.96,4.96 47.96,4.96 47.96,4.96 46.13,5.09 44.31,5.21 42.89,5.29 41.47,5.37 40.21,5.56 38.96,5.75 37.78,5.92 36.60,6.09 35.46,6.03 34.33,5.97 33.14,5.95 31.95,5.94 30.81,5.81 29.66,5.69 28.57,5.46 27.47,5.23 26.30,5.11 25.14,4.99 23.87,4.96 22.60,4.93 21.53,4.74 20.45,4.55 19.20,4.42 17.95,4.29 16.66,3.99 15.36,3.68 13.99,3.31 12.63,2.93 11.37,2.52 10.12,2.11 8.91,1.93 7.71,1.76 6.58,1.77 5.45,1.78 3.97,1.90 2.48,2.01 1.53,2.20 0.59,2.38 0.27,2.42 -0.03,2.45 -0.35,2.41 -0.66,2.36 -0.96,2.25 -1.25,2.13 -1.51,1.95 -1.77,1.76 -1.98,1.52 -2.18,1.28 -2.33,1.00 -2.47,0.72 -2.54,0.41 -2.61,0.10 -2.61,-0.21 -2.60,-0.53 -2.52,-0.83 -2.44,-1.14 -2.29,-1.42 -2.14,-1.70 -1.92,-1.93 -1.71,-2.17 -1.45,-2.34 -1.18,-2.52 -0.89,-2.63 -0.59,-2.73 -0.59,-2.73 L -0.59,-2.73 Z"></path>
  </g>
</svg>